<svg width="27" height="24" viewBox="0 0 27 24" fill="none" xmlns="http://www.w3.org/2000/svg">
<path d="M22.8337 4.66666H21.127L20.7003 3.33332C20.4237 2.55096 19.9107 1.87399 19.2322 1.3962C18.5537 0.918413 17.7435 0.663457 16.9137 0.666656H10.087C9.24906 0.668223 8.43277 0.9329 7.75335 1.42333C7.07392 1.91376 6.56567 2.60517 6.30033 3.39999L5.87366 4.73332H4.16699C3.10613 4.73332 2.08871 5.15475 1.33857 5.90489C0.58842 6.65504 0.166992 7.67246 0.166992 8.73332V19.4C0.166992 20.4609 0.58842 21.4783 1.33857 22.2284C2.08871 22.9786 3.10613 23.4 4.16699 23.4H22.8337C23.8945 23.4 24.9119 22.9786 25.6621 22.2284C26.4122 21.4783 26.8337 20.4609 26.8337 19.4V8.73332C26.8425 8.20245 26.7456 7.67513 26.5485 7.18211C26.3515 6.68908 26.0582 6.24022 25.6859 5.8617C25.3136 5.48318 24.8696 5.18256 24.3799 4.97739C23.8903 4.77221 23.3646 4.66658 22.8337 4.66666ZM24.167 19.3333C24.167 19.6869 24.0265 20.0261 23.7765 20.2761C23.5264 20.5262 23.1873 20.6667 22.8337 20.6667H4.16699C3.81337 20.6667 3.47423 20.5262 3.22418 20.2761C2.97413 20.0261 2.83366 19.6869 2.83366 19.3333V8.66666C2.83366 8.31303 2.97413 7.9739 3.22418 7.72385C3.47423 7.4738 3.81337 7.33332 4.16699 7.33332H6.83366C7.12441 7.3485 7.41214 7.26809 7.6529 7.10437C7.89366 6.94065 8.07422 6.70263 8.16699 6.42666L8.88699 4.23999C8.97644 3.97516 9.14686 3.74514 9.37415 3.58244C9.60145 3.41975 9.87413 3.3326 10.1537 3.33332H16.9803C17.2598 3.3326 17.5325 3.41975 17.7598 3.58244C17.9871 3.74514 18.1575 3.97516 18.247 4.23999L18.967 6.42666C19.0526 6.68098 19.2129 6.90358 19.427 7.06534C19.641 7.2271 19.899 7.3205 20.167 7.33332H22.8337C23.1873 7.33332 23.5264 7.4738 23.7765 7.72385C24.0265 7.9739 24.167 8.31303 24.167 8.66666V19.3333ZM13.5003 7.33332C12.4455 7.33332 11.4143 7.64612 10.5373 8.23215C9.66022 8.81819 8.97663 9.65114 8.57297 10.6257C8.1693 11.6002 8.06368 12.6726 8.26947 13.7071C8.47526 14.7417 8.98321 15.692 9.72909 16.4379C10.475 17.1838 11.4253 17.6917 12.4598 17.8975C13.4944 18.1033 14.5668 17.9977 15.5413 17.594C16.5158 17.1903 17.3488 16.5068 17.9348 15.6297C18.5209 14.7526 18.8337 13.7215 18.8337 12.6667C18.8337 11.2522 18.2718 9.89561 17.2716 8.89542C16.2714 7.89523 14.9148 7.33332 13.5003 7.33332ZM13.5003 15.3333C12.9729 15.3333 12.4573 15.1769 12.0188 14.8839C11.5803 14.5909 11.2385 14.1744 11.0366 13.6871C10.8348 13.1999 10.782 12.6637 10.8849 12.1464C10.9878 11.6291 11.2418 11.154 11.6147 10.781C11.9876 10.4081 12.4628 10.1541 12.9801 10.0512C13.4974 9.94833 14.0335 10.0011 14.5208 10.203C15.0081 10.4048 15.4246 10.7466 15.7176 11.1851C16.0106 11.6237 16.167 12.1392 16.167 12.6667C16.167 13.3739 15.886 14.0522 15.3859 14.5523C14.8858 15.0524 14.2076 15.3333 13.5003 15.3333Z" fill="#4275FA"/>
</svg>
