<svg width="27" height="28" viewBox="0 0 27 28" fill="none" xmlns="http://www.w3.org/2000/svg">
<path d="M22.8337 0.666687H4.16699C3.10613 0.666687 2.08871 1.08811 1.33857 1.83826C0.58842 2.58841 0.166992 3.60582 0.166992 4.66669V23.3334C0.166992 24.3942 0.58842 25.4116 1.33857 26.1618C2.08871 26.9119 3.10613 27.3334 4.16699 27.3334H22.8337C23.8945 27.3334 24.9119 26.9119 25.6621 26.1618C26.4122 25.4116 26.8337 24.3942 26.8337 23.3334V4.66669C26.8337 3.60582 26.4122 2.58841 25.6621 1.83826C24.9119 1.08811 23.8945 0.666687 22.8337 0.666687ZM18.9537 3.33335L13.6203 8.66669H8.04699L13.3803 3.33335H18.9537ZM2.83366 4.66669C2.83366 4.31307 2.97413 3.97393 3.22418 3.72388C3.47423 3.47383 3.81337 3.33335 4.16699 3.33335H9.62033L4.28699 8.66669H2.83366V4.66669ZM24.167 23.3334C24.167 23.687 24.0265 24.0261 23.7765 24.2762C23.5264 24.5262 23.1873 24.6667 22.8337 24.6667H4.16699C3.81337 24.6667 3.47423 24.5262 3.22418 24.2762C2.97413 24.0261 2.83366 23.687 2.83366 23.3334V11.3334H24.167V23.3334ZM24.167 8.66669H17.3803L22.7137 3.33335H22.8337C23.1873 3.33335 23.5264 3.47383 23.7765 3.72388C24.0265 3.97393 24.167 4.31307 24.167 4.66669V8.66669Z" fill="#4275FA"/>
</svg>
