<svg width="21" height="20" viewBox="0 0 21 20" fill="none" xmlns="http://www.w3.org/2000/svg">
<path d="M17.9396 11.0001C17.7196 11.0001 17.4896 10.9301 17.2696 10.8801C16.8241 10.7819 16.3863 10.6516 15.9596 10.4901C15.4957 10.3213 14.9858 10.3301 14.5279 10.5147C14.0701 10.6993 13.6967 11.0467 13.4796 11.4901L13.2596 11.9401C12.2856 11.3983 11.3906 10.7253 10.5996 9.94011C9.81438 9.14913 9.14143 8.25411 8.59961 7.28011L9.01961 7.00011C9.46298 6.78303 9.81039 6.40964 9.99501 5.9518C10.1796 5.49396 10.1884 4.98402 10.0196 4.52011C9.86084 4.09253 9.73055 3.65491 9.62961 3.21011C9.57961 2.99011 9.53961 2.76011 9.50961 2.53011C9.38818 1.82573 9.01924 1.18785 8.46923 0.731352C7.91923 0.274849 7.22431 0.0297211 6.50961 0.0401122H3.50961C3.07864 0.0360657 2.65186 0.124926 2.25832 0.300643C1.86478 0.47636 1.51372 0.734808 1.22904 1.05839C0.944363 1.38198 0.732747 1.76311 0.608601 2.17583C0.484454 2.58855 0.450692 3.02317 0.509613 3.45011C1.04235 7.63949 2.95564 11.532 5.94726 14.5127C8.93889 17.4935 12.8383 19.3926 17.0296 19.9101H17.4096C18.147 19.9112 18.859 19.6406 19.4096 19.1501C19.726 18.8672 19.9787 18.5203 20.1511 18.1324C20.3235 17.7446 20.4116 17.3245 20.4096 16.9001V13.9001C20.3974 13.2055 20.1444 12.5367 19.694 12.0078C19.2435 11.4789 18.6234 11.1227 17.9396 11.0001ZM18.4396 17.0001C18.4394 17.1421 18.409 17.2824 18.3504 17.4117C18.2918 17.5411 18.2063 17.6564 18.0996 17.7501C17.9879 17.8466 17.8572 17.9187 17.716 17.9617C17.5748 18.0048 17.4262 18.0178 17.2796 18.0001C13.5345 17.5199 10.0558 15.8066 7.39233 13.1304C4.72881 10.4542 3.03202 6.96745 2.56961 3.22011C2.5537 3.07363 2.56765 2.92544 2.61061 2.7845C2.65358 2.64356 2.72468 2.5128 2.81961 2.40011C2.91332 2.29344 3.02867 2.20795 3.15799 2.14933C3.28731 2.09071 3.42763 2.06029 3.56961 2.06011H6.56961C6.80216 2.05494 7.02924 2.13099 7.21176 2.27518C7.39428 2.41937 7.52082 2.62268 7.56961 2.85011C7.60961 3.12345 7.65961 3.39345 7.71961 3.66011C7.83513 4.18726 7.98887 4.70529 8.17961 5.21011L6.77961 5.86011C6.65991 5.91503 6.55223 5.99306 6.46277 6.08971C6.37331 6.18636 6.30381 6.29973 6.25828 6.42331C6.21275 6.54689 6.19208 6.67824 6.19746 6.80983C6.20284 6.94142 6.23415 7.07066 6.28961 7.19011C7.72881 10.2729 10.2069 12.7509 13.2896 14.1901C13.5331 14.2901 13.8062 14.2901 14.0496 14.1901C14.1743 14.1455 14.2889 14.0766 14.3868 13.9873C14.4846 13.898 14.5638 13.7902 14.6196 13.6701L15.2396 12.2701C15.7566 12.455 16.2842 12.6086 16.8196 12.7301C17.0863 12.7901 17.3563 12.8401 17.6296 12.8801C17.857 12.9289 18.0604 13.0554 18.2045 13.238C18.3487 13.4205 18.4248 13.6476 18.4196 13.8801L18.4396 17.0001Z" fill="#3FA3FF"/>
</svg>
