<svg width="25" height="28" viewBox="0 0 25 28" fill="none" xmlns="http://www.w3.org/2000/svg">
<path d="M8.11335 17.0534C7.92572 16.8686 7.68767 16.7435 7.42912 16.6937C7.17057 16.6438 6.90307 16.6716 6.66023 16.7734C6.49481 16.8333 6.34458 16.9289 6.22016 17.0533C6.09575 17.1777 6.00019 17.3279 5.94023 17.4934C5.85375 17.6961 5.8189 17.9172 5.83879 18.1368C5.85869 18.3563 5.93271 18.5675 6.05424 18.7515C6.17576 18.9354 6.341 19.0864 6.53516 19.1908C6.72931 19.2952 6.94633 19.3499 7.16679 19.3499C7.38725 19.3499 7.60427 19.2952 7.79843 19.1908C7.99259 19.0864 8.15782 18.9354 8.27935 18.7515C8.40087 18.5675 8.4749 18.3563 8.49479 18.1368C8.51469 17.9172 8.47983 17.6961 8.39335 17.4934C8.3259 17.3317 8.23119 17.1829 8.11335 17.0534ZM18.78 17.0534C18.5222 16.8154 18.1842 16.6832 17.8334 16.6832C17.4826 16.6832 17.1446 16.8154 16.8868 17.0534C16.7689 17.1829 16.6742 17.3318 16.6068 17.4935C16.5028 17.7359 16.4738 18.004 16.5237 18.263C16.5736 18.5221 16.7 18.7602 16.8867 18.9467C17.0163 19.0645 17.1651 19.1592 17.3268 19.2267C17.4864 19.2971 17.6589 19.3335 17.8333 19.3335C18.0077 19.3335 18.1802 19.2971 18.3398 19.2267C18.5013 19.1589 18.6501 19.0643 18.7799 18.9467C18.9666 18.7603 19.093 18.5221 19.1429 18.2631C19.1928 18.0041 19.1639 17.736 19.0599 17.4936C18.9925 17.3319 18.8978 17.183 18.78 17.0534ZM22.2459 23.1937C23.1899 22.4413 23.9104 21.4454 24.3297 20.3135C24.7489 19.1815 24.8511 17.9566 24.6251 16.7708L22.6251 6.10413C22.3383 4.57623 21.5267 3.19657 20.3305 2.20369C19.1343 1.21081 17.6288 0.66714 16.0742 0.666687H8.92581C7.37124 0.667155 5.86571 1.21084 4.66953 2.20373C3.47336 3.19662 2.66174 4.57629 2.37502 6.10418L0.37502 16.7708C0.148997 17.9566 0.251144 19.1816 0.670433 20.3135C1.08972 21.4455 1.81023 22.4414 2.75417 23.1938L0.890686 25.0574C0.765047 25.1807 0.665096 25.3278 0.596605 25.49C0.528114 25.6522 0.492439 25.8264 0.491642 26.0025C0.490844 26.1786 0.52494 26.3531 0.591959 26.516C0.658978 26.6788 0.757593 26.8267 0.88211 26.9513C1.00663 27.0758 1.15458 27.1744 1.31742 27.2414C1.48026 27.3084 1.65476 27.3425 1.83085 27.3417C2.00694 27.3409 2.18113 27.3053 2.34336 27.2368C2.50559 27.1683 2.65264 27.0683 2.77602 26.9427L5.26821 24.4505C5.8095 24.5917 6.3664 24.6644 6.92581 24.6667H18.0742C18.6336 24.6644 19.1905 24.5918 19.7318 24.4505L22.224 26.9427C22.4748 27.189 22.8127 27.3262 23.1642 27.3247C23.5157 27.3231 23.8523 27.1827 24.1009 26.9342C24.3494 26.6856 24.4897 26.349 24.4913 25.9975C24.4929 25.646 24.3556 25.3081 24.1094 25.0574L22.2459 23.1937ZM4.99481 6.59638C5.1672 5.67967 5.65432 4.85195 6.37205 4.25619C7.08977 3.66042 7.99303 3.33402 8.92581 3.33335H16.0742C17.007 3.33402 17.9103 3.66042 18.628 4.25619C19.3457 4.85195 19.8328 5.67967 20.0052 6.59638L20.4675 9.06162C19.472 10.1944 18.2465 11.1018 16.8726 11.7235C15.4987 12.3451 14.008 12.6667 12.5 12.6667C10.992 12.6667 9.50137 12.3451 8.12747 11.7235C6.75357 11.1018 5.52802 10.1944 4.53257 9.06162L4.99481 6.59638ZM21.1511 20.5547C20.7764 21.0075 20.3063 21.3719 19.7744 21.6217C19.2425 21.8716 18.6619 22.0008 18.0742 22H6.92581C6.33817 21.9998 5.75779 21.8701 5.22592 21.6203C4.69407 21.3704 4.22378 21.0064 3.84852 20.5542C3.47325 20.1019 3.2022 19.5726 3.05465 19.0038C2.9071 18.435 2.88667 17.8407 2.99481 17.263L3.94289 12.2066C6.33701 14.2258 9.36807 15.3334 12.5 15.3334C15.632 15.3334 18.663 14.2258 21.0572 12.2066L22.0052 17.263C22.1143 17.8407 22.0944 18.4354 21.9467 19.0045C21.799 19.5736 21.5273 20.1029 21.1511 20.5547Z" fill="#4275FA"/>
</svg>
