<svg width="21" height="20" viewBox="0 0 21 20" fill="none" xmlns="http://www.w3.org/2000/svg">
<path d="M14.2105 10.7099C15.1909 9.93854 15.9065 8.8808 16.2577 7.68382C16.609 6.48684 16.5784 5.21015 16.1703 4.03135C15.7621 2.85255 14.9967 1.83027 13.9806 1.10674C12.9644 0.3832 11.7479 -0.00561523 10.5005 -0.00561523C9.25303 -0.00561523 8.0366 0.3832 7.02041 1.10674C6.00423 1.83027 5.23883 2.85255 4.8307 4.03135C4.42257 5.21015 4.392 6.48684 4.74325 7.68382C5.09449 8.8808 5.81009 9.93854 6.79048 10.7099C5.11056 11.3829 3.64477 12.4992 2.54938 13.9398C1.45398 15.3804 0.770048 17.0912 0.570485 18.8899C0.55604 19.0212 0.567602 19.1541 0.60451 19.2809C0.641419 19.4078 0.702952 19.5261 0.785596 19.6292C0.952504 19.8374 1.19527 19.9707 1.46049 19.9999C1.7257 20.0291 1.99164 19.9517 2.19981 19.7848C2.40798 19.6179 2.54131 19.3751 2.57049 19.1099C2.79007 17.1551 3.72217 15.3497 5.1887 14.0387C6.65524 12.7277 8.55338 12.0029 10.5205 12.0029C12.4876 12.0029 14.3857 12.7277 15.8523 14.0387C17.3188 15.3497 18.2509 17.1551 18.4705 19.1099C18.4977 19.3556 18.6149 19.5825 18.7996 19.7469C18.9843 19.9113 19.2233 20.0014 19.4705 19.9999H19.5805C19.8426 19.9697 20.0822 19.8372 20.247 19.6311C20.4119 19.4251 20.4886 19.1622 20.4605 18.8999C20.26 17.0961 19.5724 15.3809 18.4713 13.9381C17.3703 12.4953 15.8974 11.3794 14.2105 10.7099ZM10.5005 9.99988C9.70936 9.99988 8.936 9.76528 8.2782 9.32576C7.62041 8.88623 7.10772 8.26152 6.80497 7.53061C6.50222 6.79971 6.423 5.99544 6.57734 5.21952C6.73168 4.4436 7.11265 3.73086 7.67206 3.17145C8.23147 2.61204 8.9442 2.23108 9.72012 2.07674C10.496 1.9224 11.3003 2.00161 12.0312 2.30436C12.7621 2.60711 13.3868 3.1198 13.8264 3.7776C14.2659 4.4354 14.5005 5.20876 14.5005 5.99988C14.5005 7.06075 14.0791 8.07816 13.3289 8.82831C12.5788 9.57845 11.5614 9.99988 10.5005 9.99988Z" fill="#3FA3FF"/>
</svg>
